<svg width="20" height="19" viewBox="0 0 20 19" fill="none" xmlns="http://www.w3.org/2000/svg">
<path d="M4.77496 4.42146H18.1391C18.8045 4.42146 19.2843 5.05921 19.0999 5.69857L18.372 8.22255C18.0016 9.50688 16.8262 10.3912 15.4895 10.3912H5.94162M0.385986 1H2.62738C3.59563 1 4.42483 1.6936 4.59591 2.64661L6.19364 11.5467C6.36472 12.4998 7.19391 13.1934 8.16217 13.1934H17.7466" stroke="white" stroke-width="1.5"/>
<path d="M9.80415 16.6992C9.80415 17.1496 9.38727 17.6193 8.73862 17.6193C8.08997 17.6193 7.6731 17.1496 7.6731 16.6992C7.6731 16.2487 8.08997 15.7791 8.73862 15.7791C9.38727 15.7791 9.80415 16.2487 9.80415 16.6992Z" stroke="white" stroke-width="1.5"/>
<path d="M17.7927 16.6992C17.7927 17.1496 17.3758 17.6193 16.7271 17.6193C16.0785 17.6193 15.6616 17.1496 15.6616 16.6992C15.6616 16.2487 16.0785 15.7791 16.7271 15.7791C17.3758 15.7791 17.7927 16.2487 17.7927 16.6992Z" stroke="white" stroke-width="1.5"/>
</svg>
